<svg width="100%" viewBox="0 0 680 570" role="img" xmlns="http://www.w3.org/2000/svg">
<title>ranggraph (8주차) 구조도</title>
<desc>인덱싱 파이프라인은 이전 단계와 동일하고, 쿼리 단계가 고정 파이프라인 대신 agent 노드와 tools 노드가 서로를 오가는 ReAct 에이전트 루프로 바뀐 구조. LLM이 도구가 더 필요한지 스스로 판단해서 반복하거나 답변으로 종료한다.</desc>
<defs><marker id="arrow" viewBox="0 0 10 10" refX="8" refY="5" markerWidth="6" markerHeight="6" orient="auto-start-reverse"><path d="M2 1L8 5L2 9" fill="none" stroke="#5F5E5A" stroke-width="1.5" stroke-linecap="round" stroke-linejoin="round"/></marker></defs>
<rect width="680" height="570" fill="#ffffff"/>

<rect x="30" y="50" width="610" height="100" rx="8" fill="none" stroke="#B4B2A9" stroke-width="0.5" stroke-dasharray="4 3"/>
<text x="40" y="66" font-size="12" fill="#5F5E5A">인덱싱 파이프라인 · rangchain과 동일 · 최초 1회</text>

<rect x="40" y="70" width="190" height="60" rx="4" fill="#E6F1FB" stroke="#378ADD"/>
<text x="135" y="94" text-anchor="middle" font-size="14" font-weight="500" fill="#042C53">data/aws_docs/</text>
<text x="135" y="112" text-anchor="middle" font-size="12" fill="#0C447C">마크다운 문서 5개</text>

<rect x="245" y="70" width="190" height="60" rx="4" fill="#E6F1FB" stroke="#378ADD"/>
<text x="340" y="94" text-anchor="middle" font-size="14" font-weight="500" fill="#042C53">chunking.py</text>
<text x="340" y="112" text-anchor="middle" font-size="12" fill="#0C447C">헤더 기반 청킹</text>

<rect x="450" y="70" width="190" height="60" rx="4" fill="#E6F1FB" stroke="#378ADD"/>
<text x="545" y="94" text-anchor="middle" font-size="14" font-weight="500" fill="#042C53">build_vectordb.py</text>
<text x="545" y="112" text-anchor="middle" font-size="12" fill="#0C447C">Document+HF 임베딩</text>

<line x1="230" y1="100" x2="245" y2="100" stroke="#5F5E5A" stroke-width="1.5" marker-end="url(#arrow)"/>
<line x1="435" y1="100" x2="450" y2="100" stroke="#5F5E5A" stroke-width="1.5" marker-end="url(#arrow)"/>
<path d="M545,130 L545,148 L240,148 L240,180" fill="none" stroke="#5F5E5A" stroke-width="1.5" marker-end="url(#arrow)"/>

<rect x="130" y="180" width="220" height="60" rx="4" fill="#FDF3E3" stroke="#D8A73D"/>
<text x="240" y="204" text-anchor="middle" font-size="14" font-weight="500" fill="#5C4419">vectordb/</text>
<text x="240" y="222" text-anchor="middle" font-size="12" fill="#8A6A2A">langchain_chroma</text>

<line x1="240" y1="240" x2="240" y2="290" stroke="#5F5E5A" stroke-width="1.5" marker-end="url(#arrow)"/>

<rect x="30" y="260" width="610" height="200" rx="8" fill="none" stroke="#B4B2A9" stroke-width="0.5" stroke-dasharray="4 3"/>
<text x="40" y="276" font-size="12" fill="#5F5E5A">ReAct 에이전트 루프 · MemorySaver로 멀티턴</text>

<rect x="40" y="290" width="110" height="60" rx="4" fill="#E1F5EE" stroke="#1D9E75"/>
<text x="95" y="314" text-anchor="middle" font-size="14" font-weight="500" fill="#04342C">질문</text>
<text x="95" y="332" text-anchor="middle" font-size="12" fill="#085041">사용자 입력</text>

<rect x="190" y="290" width="170" height="60" rx="4" fill="#E1F5EE" stroke="#1D9E75"/>
<text x="275" y="314" text-anchor="middle" font-size="14" font-weight="500" fill="#04342C">agent 노드</text>
<text x="275" y="332" text-anchor="middle" font-size="12" fill="#085041">LLM 판단 (도구 바인딩)</text>

<rect x="400" y="290" width="170" height="60" rx="4" fill="#E1F5EE" stroke="#1D9E75"/>
<text x="485" y="314" text-anchor="middle" font-size="14" font-weight="500" fill="#04342C">tools 노드</text>
<text x="485" y="332" text-anchor="middle" font-size="12" fill="#085041">search_aws_docs 실행</text>

<rect x="190" y="380" width="170" height="60" rx="4" fill="#E1F5EE" stroke="#1D9E75"/>
<text x="275" y="404" text-anchor="middle" font-size="14" font-weight="500" fill="#04342C">답변</text>
<text x="275" y="422" text-anchor="middle" font-size="12" fill="#085041">출처 인라인 포함</text>

<line x1="150" y1="320" x2="190" y2="320" stroke="#5F5E5A" stroke-width="1.5" marker-end="url(#arrow)"/>
<line x1="360" y1="310" x2="400" y2="310" stroke="#5F5E5A" stroke-width="1.5" marker-end="url(#arrow)"/>
<text x="380" y="303" text-anchor="middle" font-size="12" fill="#5F5E5A">도구 필요</text>
<line x1="400" y1="335" x2="360" y2="335" stroke="#5F5E5A" stroke-width="1.5" marker-end="url(#arrow)"/>
<text x="380" y="353" text-anchor="middle" font-size="12" fill="#5F5E5A">결과 반영</text>
<line x1="275" y1="350" x2="275" y2="380" stroke="#5F5E5A" stroke-width="1.5" marker-end="url(#arrow)"/>
<text x="235" y="368" text-anchor="middle" font-size="12" fill="#5F5E5A">충분함</text>

<line x1="260" y1="460" x2="260" y2="490" stroke="#888780" stroke-width="0.5" stroke-dasharray="3 2" marker-end="url(#arrow)"/>
<line x1="500" y1="460" x2="500" y2="490" stroke="#888780" stroke-width="0.5" stroke-dasharray="3 2" marker-end="url(#arrow)"/>

<rect x="150" y="490" width="220" height="60" rx="4" fill="#F1EFE8" stroke="#B4B2A9"/>
<text x="260" y="514" text-anchor="middle" font-size="14" font-weight="500" fill="#2C2C2A">app.py</text>
<text x="260" y="532" text-anchor="middle" font-size="12" fill="#5F5E5A">FastAPI · /query · 웜업</text>

<rect x="390" y="490" width="220" height="60" rx="4" fill="#F1EFE8" stroke="#B4B2A9"/>
<text x="500" y="514" text-anchor="middle" font-size="14" font-weight="500" fill="#2C2C2A">streamlit_app.py</text>
<text x="500" y="532" text-anchor="middle" font-size="12" fill="#5F5E5A">멀티턴 채팅 UI</text>
</svg>
